HIERARCHY
ROOT root
{
	OFFSET 0.000000 0.000000 0.000000
	CHANNELS 6 Xposition Yposition Zposition Zrotation Yrotation Xrotation
	JOINT lhip
	{
		OFFSET 0.058581 -0.082280 -0.017664
		CHANNELS 3 Zrotation Yrotation Xrotation
		JOINT lknee
		{
			OFFSET 0.043451 -0.386469 0.008037
			CHANNELS 3 Zrotation Yrotation Xrotation
			JOINT lankle
			{
				OFFSET -0.014790 -0.426874 -0.037428
				CHANNELS 3 Zrotation Yrotation Xrotation
				JOINT ltoe
				{
					OFFSET 0.041054 -0.060286 0.122042
					CHANNELS 3 Zrotation Yrotation Xrotation
					End Site
					{
						OFFSET 0.000000 0.000000 0.000000
					}
				}
			}
		}
	}
	JOINT rhip
	{
		OFFSET -0.060310 -0.090513 -0.013543
		CHANNELS 3 Zrotation Yrotation Xrotation
		JOINT rknee
		{
			OFFSET -0.043257 -0.383688 -0.004843
			CHANNELS 3 Zrotation Yrotation Xrotation
			JOINT rankle
			{
				OFFSET 0.019056 -0.420046 -0.034562
				CHANNELS 3 Zrotation Yrotation Xrotation
				JOINT rtoe
				{
					OFFSET -0.034840 -0.062106 0.130323
					CHANNELS 3 Zrotation Yrotation Xrotation
					End Site
					{
						OFFSET 0.000000 0.000000 0.000000
					}
				}
			}
		}
	}
	JOINT lowerback
	{
		OFFSET 0.004439 0.124404 -0.038385
		CHANNELS 3 Zrotation Yrotation Xrotation
		JOINT upperback
		{
			OFFSET 0.004488 0.137956 0.026820
			CHANNELS 3 Zrotation Yrotation Xrotation
			JOINT chest
			{
				OFFSET -0.002265 0.056032 0.002855
				CHANNELS 3 Zrotation Yrotation Xrotation
				JOINT lowerneck
				{
					OFFSET -0.013390 0.211636 -0.033468
					CHANNELS 3 Zrotation Yrotation Xrotation
					JOINT upperneck
					{
						OFFSET 0.010113 0.088937 0.050410
						CHANNELS 3 Zrotation Yrotation Xrotation
						End Site
						{
							OFFSET 0.000000 0.000000 0.000000
						}
					}
				}
				JOINT lclavicle
				{
					OFFSET 0.071702 0.114000 -0.018898
					CHANNELS 3 Zrotation Yrotation Xrotation
					JOINT lshoulder
					{
						OFFSET 0.122921 0.045205 -0.019046
						CHANNELS 3 Zrotation Yrotation Xrotation
						JOINT lelbow
						{
							OFFSET 0.255332 -0.015649 -0.022946
							CHANNELS 3 Zrotation Yrotation Xrotation
							JOINT lwrist
							{
								OFFSET 0.265709 0.012698 -0.007375
								CHANNELS 3 Zrotation Yrotation Xrotation
								End Site
								{
									OFFSET 0.000000 0.000000 0.000000
								}
							}
						}
					}
				}
				JOINT rclavicle
				{
					OFFSET -0.082954 0.112472 -0.023707
					CHANNELS 3 Zrotation Yrotation Xrotation
					JOINT rshoulder
					{
						OFFSET -0.113228 0.046853 -0.008472
						CHANNELS 3 Zrotation Yrotation Xrotation
						JOINT relbow
						{
							OFFSET -0.260127 -0.014369 -0.031269
							CHANNELS 3 Zrotation Yrotation Xrotation
							JOINT rwrist
							{
								OFFSET -0.269108 0.006794 -0.006027
								CHANNELS 3 Zrotation Yrotation Xrotation
								End Site
								{
									OFFSET 0.000000 0.000000 0.000000
								}
							}
						}
					}
				}
			}
		}
	}
}
MOTION
Frames: 16
Frame Time: 0.033333
-0.371719 2.824018 0.998353 178.611023 -1.303986 85.856181 1.022561 -2.312160 -2.466720 -3.804690 -8.276735 6.247662 6.467217 15.147096 -8.118405 0.000000 -0.000000 0.000000 -7.536575 -2.809226 4.461812 3.503133 2.698773 32.118019 13.024492 -2.868701 -5.378133 0.000000 -0.000000 0.000000 0.820540 5.286960 -2.385226 2.699042 -2.976345 12.295865 -0.826522 1.030541 -3.348176 5.469601 15.593909 2.441431 3.294925 21.379453 4.735054 -29.192310 5.719710 -6.580523 -48.058280 -1.393976 9.619943 14.040769 -41.355391 -8.453337 -2.814971 -7.815554 14.306949 27.517003 -0.294345 -0.316879 43.944822 5.881590 8.359185 -7.483558 50.288641 -3.126226 6.903020 11.783453 17.747918 
-0.380045 2.840744 0.999910 178.119480 -1.010030 85.889162 0.837770 -1.872803 -0.500541 -3.818073 -8.381223 4.658180 6.948320 15.383673 -8.419472 0.000000 -0.000000 0.000000 -7.721005 -2.123999 1.784650 3.284848 1.644683 37.443737 13.476323 -3.012092 -1.937613 0.000000 -0.000000 0.000000 0.383763 4.326298 -2.435801 2.965630 -2.689459 12.080914 -0.871381 1.023586 -3.419184 5.601648 16.154507 2.271617 3.212455 21.601137 4.577013 -28.979463 5.453643 -6.749499 -48.048601 -1.395056 10.160446 13.960939 -42.417674 -8.137365 -2.547853 -8.015767 14.098887 27.823410 -0.480767 -0.510886 43.787891 5.308103 8.509393 -7.789645 50.292636 -3.362603 6.861759 11.645136 17.752000 
-0.386851 2.855531 1.000977 177.894350 -0.767604 85.710909 0.791662 -1.418563 1.617664 -3.976168 -8.739625 2.899730 7.351232 15.560116 -8.586422 0.000000 -0.000000 0.000000 -7.970933 -1.732410 -1.259040 3.000607 0.158535 43.452917 12.938429 -3.654410 1.559219 0.000000 -0.000000 0.000000 -0.282251 3.206745 -1.772425 3.197623 -2.436644 11.751501 -0.867946 0.931804 -3.532416 5.931489 16.948276 2.076601 2.933274 21.655415 4.173516 -28.606334 5.095127 -6.831952 -47.991300 -1.579935 10.543932 14.160088 -43.506199 -7.987347 -2.124583 -8.218817 13.659382 28.219551 -0.481974 -0.705500 43.777678 4.943995 8.706328 -8.414979 50.165333 -3.906289 6.680486 11.469992 17.432857 
-0.392013 2.868844 1.001793 177.863869 -0.422459 85.307350 0.862729 -0.973819 3.818500 -3.926550 -9.304714 1.195647 7.669024 15.824878 -8.622362 0.000000 -0.000000 0.000000 -8.104334 -1.650745 -4.145608 2.434191 -1.700073 49.074378 11.831753 -4.844730 4.867343 0.000000 -0.000000 0.000000 -0.941254 2.099221 -0.646814 3.434598 -2.213514 11.255534 -0.799611 0.754974 -3.379619 6.254739 17.733664 1.935307 2.670866 21.640339 3.829346 -28.141826 4.536461 -6.888452 -48.132997 -2.142208 10.690922 14.571854 -43.955835 -8.230070 -1.400844 -8.257233 12.975456 28.590847 -0.344783 -0.910011 43.787523 4.732179 8.835801 -8.862647 50.119803 -4.085629 6.469411 11.261242 17.168475 
-0.396229 2.880714 1.002583 177.871369 0.037565 84.872379 1.103881 -0.462974 5.806686 -3.793562 -10.009043 -0.222610 7.752387 16.155834 -8.633426 0.000000 -0.000000 0.000000 -8.128811 -1.868808 -6.755189 1.532906 -3.810813 53.669854 10.359771 -6.799285 5.764450 0.000000 -0.000000 0.000000 -1.407361 1.074579 0.601535 3.592193 -2.057229 10.642770 -0.660510 0.561517 -3.041313 6.360522 18.299192 1.886783 2.612164 21.811726 3.733653 -27.721092 3.919371 -6.885866 -48.321579 -2.879554 10.612862 14.842824 -44.014987 -8.548494 -0.527869 -8.143828 12.300112 28.813648 -0.127779 -1.083571 43.765604 4.630611 8.838795 -8.798229 50.173908 -3.544113 6.216031 11.115426 16.892907 
-0.399742 2.890703 1.003392 177.770752 0.538303 84.671155 1.413508 0.211245 7.128325 -3.594660 -10.733788 -1.085001 7.529250 16.484162 -8.757596 0.000000 -0.000000 0.000000 -8.061805 -2.538937 -9.222335 0.374232 -6.010906 56.603794 9.083186 -8.849122 2.738182 0.000000 -0.000000 0.000000 -1.628498 0.221547 1.819086 3.568010 -1.994560 9.949816 -0.471215 0.392704 -2.789628 6.179738 18.735058 1.754772 2.822764 22.188795 3.782003 -27.490334 3.506966 -6.871418 -48.228991 -3.545308 10.477304 14.740499 -44.247843 -8.555111 0.056785 -8.140940 12.090071 28.950379 0.118970 -1.205224 43.799971 4.519139 8.848282 -8.745226 50.293476 -3.089634 5.924434 11.241233 16.597869 
-0.402258 2.899043 1.004288 177.374664 1.043698 84.733541 1.737223 1.004259 7.792519 -3.333165 -11.187957 -1.400508 7.165010 16.785921 -9.066079 0.000000 -0.000000 0.000000 -7.788501 -3.622392 -11.379382 -0.616837 -7.879878 57.040210 8.559997 -10.445486 -2.107345 0.000000 -0.000000 0.000000 -1.646859 -0.260645 2.746548 3.429153 -1.977011 9.369999 -0.290570 0.228591 -2.524321 5.849170 19.015906 1.458657 3.141693 22.529438 3.768291 -27.426386 3.276169 -6.803422 -47.975446 -4.171645 10.235017 14.417579 -44.749858 -8.383960 0.332881 -8.200461 12.353637 29.014266 0.375066 -1.199129 43.929157 4.459069 8.710097 -8.824228 50.403151 -2.933360 5.568226 11.505383 16.395971 
-0.403946 2.906199 1.005014 176.667639 1.440217 84.896448 2.042327 1.824411 8.226487 -3.151727 -11.401861 -1.572314 6.728265 17.023596 -9.461720 0.000000 -0.000000 0.000000 -7.449266 -4.899823 -12.969796 -1.397074 -9.775026 54.849989 8.743360 -12.215515 -6.704764 0.000000 -0.000000 0.000000 -1.632592 -0.456093 3.557455 3.193401 -1.881824 8.776725 -0.122512 0.125689 -2.154471 5.533060 19.263729 1.034883 3.455586 22.717198 3.607070 -27.317964 3.216862 -6.768640 -47.875614 -4.726494 9.980775 14.064391 -45.326810 -8.318887 0.400986 -8.330283 12.786926 28.927579 0.587166 -1.161856 44.187409 4.391508 8.443983 -8.789014 50.487873 -2.785025 5.352264 11.708300 16.236719 
-0.404649 2.912333 1.005246 175.608361 1.675931 85.152950 2.332199 2.639480 8.643758 -3.092755 -11.418041 -1.955523 6.250968 17.251974 -9.794621 0.000000 -0.000000 0.000000 -7.016190 -6.262087 -14.015326 -1.832935 -11.789443 50.483695 8.638350 -14.070142 -9.943053 0.000000 -0.000000 0.000000 -1.721478 -0.440317 4.208590 2.916868 -1.678642 8.283350 0.022906 0.128660 -1.805103 5.311347 19.537024 0.564457 3.745070 22.824696 3.410097 -27.259733 3.306395 -6.668803 -47.743303 -5.175139 9.762474 13.719314 -46.001411 -8.399757 0.389808 -8.450036 13.242280 28.797730 0.757389 -1.065172 44.453658 4.357869 8.119471 -8.569110 50.523816 -2.541659 5.234045 11.769970 16.223821 
-0.404530 2.917910 1.004812 174.377583 1.743385 85.557051 2.485516 3.341830 8.975244 -3.042749 -11.225686 -2.505878 5.840412 17.493719 -10.060562 0.000000 -0.000000 0.000000 -6.486210 -7.482116 -14.460232 -1.664685 -13.909125 44.737490 8.433170 -15.309109 -11.539268 0.000000 -0.000000 0.000000 -1.899171 -0.296079 4.506570 2.642950 -1.480731 7.993883 0.107190 0.180027 -1.586296 5.157880 19.748702 0.370731 3.957527 22.933533 3.154849 -27.320942 3.498090 -6.500869 -47.535892 -5.432017 9.598589 13.426152 -46.597066 -8.616531 0.171556 -8.531681 13.790576 28.660346 0.913041 -0.933001 44.676846 4.304510 7.803914 -8.266205 50.455204 -2.268224 5.350365 11.721845 16.484893 
-0.403632 2.923343 1.003551 173.284394 1.689035 86.054390 2.476359 3.790077 9.033097 -3.008372 -10.893700 -2.795485 5.561217 17.782107 -10.407565 0.000000 -0.000000 0.000000 -5.922750 -8.692955 -14.266013 -1.246032 -16.252493 38.819677 8.158690 -16.388542 -11.601367 0.000000 -0.000000 0.000000 -2.094555 -0.058752 4.408305 2.416219 -1.436527 7.901145 0.127366 0.222390 -1.512600 5.000419 19.885552 0.550735 4.165157 23.064163 2.896099 -27.403263 3.647229 -6.211274 -47.420543 -5.557726 9.505465 13.101019 -46.738552 -8.724294 -0.145753 -8.537975 14.382785 28.426490 1.048961 -0.735999 44.943934 4.210620 7.459125 -7.987933 50.244685 -2.043380 5.557120 11.670519 16.783367 
-0.402021 2.928572 1.001605 172.371132 1.434595 86.532466 2.290285 3.961404 8.851547 -3.088872 -10.426688 -2.634310 5.357459 17.993519 -10.868434 0.000000 -0.000000 0.000000 -5.381344 -10.000922 -13.490630 -1.307143 -18.587998 33.509815 7.041599 -18.065244 -9.647128 0.000000 -0.000000 0.000000 -2.387848 0.335043 4.209136 2.222923 -1.415337 7.732955 0.098511 0.240734 -1.439293 4.988076 19.876210 0.724231 4.323994 23.013828 3.042483 -27.392941 3.786502 -5.977775 -47.539701 -5.670634 9.668334 12.704413 -46.352170 -8.430319 -0.567862 -8.428112 14.754642 28.198137 0.970852 -0.745807 45.243943 3.923353 7.211146 -7.786243 50.084658 -1.917200 5.822308 11.489071 16.981046 
-0.399762 2.933162 0.999316 171.545172 0.854530 87.077357 1.953127 4.103616 8.644275 -3.411774 -9.928799 -2.622392 5.200896 18.039347 -11.168998 0.000000 -0.000000 0.000000 -4.950233 -11.280146 -12.567681 -1.531857 -20.024013 29.326226 4.840524 -19.691972 -7.064667 0.000000 -0.000000 0.000000 -2.916350 0.850814 3.865032 1.995114 -1.361382 7.658491 0.029715 0.254320 -1.397879 5.092762 19.778245 0.756430 4.265125 22.841864 3.253530 -27.374283 3.999241 -5.808156 -47.669972 -5.829104 9.874368 12.237831 -45.919883 -7.994855 -1.077760 -8.155689 14.972877 28.012692 0.686235 -0.883105 45.589247 3.664398 7.154224 -7.708653 49.909948 -1.820650 6.081982 11.188703 17.086627 
-0.397097 2.937407 0.997424 170.842108 0.243327 87.593849 1.546112 4.420318 8.694763 -3.540346 -9.563796 -3.111727 5.046327 18.048337 -11.153918 0.000000 -0.000000 0.000000 -4.579487 -11.806367 -11.854439 -1.629439 -19.822244 26.859842 3.818117 -20.277148 -7.178823 0.000000 -0.000000 0.000000 -3.324765 1.202908 3.458227 1.670053 -1.307095 7.797485 -0.073800 0.312081 -1.413701 5.005973 19.611007 0.674631 4.266091 22.752766 3.168873 -27.494101 4.178868 -5.724928 -47.635739 -5.779503 9.982412 11.803178 -45.725236 -7.610010 -1.548547 -7.991737 15.208074 27.878555 0.496669 -0.926529 45.889276 3.511498 7.234062 -7.812021 49.624381 -1.839631 6.183908 11.047515 17.093800 
-0.394398 2.941621 0.996396 170.378272 -0.105502 87.932441 1.182990 4.610741 8.899501 -3.311352 -9.290271 -3.566700 4.918058 18.242349 -11.143512 0.000000 -0.000000 0.000000 -4.387465 -11.505507 -10.987430 -1.401141 -19.056807 24.927934 3.525336 -20.540476 -7.848888 0.000000 -0.000000 0.000000 -3.307562 1.262112 3.158046 1.372854 -1.310086 8.083828 -0.253992 0.398983 -1.518041 4.788361 19.397763 0.669827 4.263775 22.773383 2.863274 -27.709580 4.308275 -5.655027 -47.673840 -5.523889 10.056731 11.651417 -45.638358 -7.432067 -2.059048 -7.901541 15.364108 27.673093 0.427787 -0.885776 46.142482 3.408319 7.310711 -7.947080 49.281807 -1.841658 6.355392 10.959125 17.046912 
-0.391464 2.945223 0.996054 170.133490 -0.289781 88.307340 0.981305 4.562035 8.813600 -3.095439 -9.077297 -3.602119 4.781372 18.407914 -11.300286 0.000000 -0.000000 0.000000 -4.310382 -11.195110 -10.627787 -1.080279 -18.655310 23.984228 3.292918 -20.606084 -8.345667 0.000000 -0.000000 0.000000 -3.144061 1.231011 2.970263 1.205670 -1.333055 8.194677 -0.394374 0.435147 -1.643329 4.569970 19.173571 0.688068 4.218778 22.838751 2.605938 -27.977732 4.402269 -5.633040 -47.820535 -5.246382 10.208822 11.526437 -45.466004 -7.244952 -2.317781 -7.874489 15.458727 27.579270 0.315312 -0.912183 46.205324 3.207338 7.283832 -8.100914 49.103704 -1.986828 6.421747 10.996258 17.027732 
